# Blender 4.0.1
# www.blender.org
mtllib CStellCube.mtl
o Cube
v -1.000000 -1.000000 1.000000
v -1.000000 -1.000000 -1.000000
v -1.000000 1.000000 1.000000
v -1.000000 1.000000 -1.000000
v 1.000000 -1.000000 1.000000
v 1.000000 -1.000000 -1.000000
v 1.000000 1.000000 1.000000
v 1.000000 1.000000 -1.000000
vn -0.0000 -0.0000 1.0000
vn -0.0000 1.0000 -0.0000
vn 1.0000 -0.0000 -0.0000
vn -0.0000 -0.0000 -1.0000
vn -1.0000 -0.0000 -0.0000
vn -0.0000 -1.0000 -0.0000
vt 1.998841 -0.000430
vt 0.998841 -0.000430
vt 0.998841 0.999570
vt 1.998841 0.999570
vt 1.998841 0.999570
vt 0.998841 0.999570
vt 0.998841 1.999570
vt 1.998841 1.999570
vt 0.998841 1.999570
vt 0.998841 2.999569
vt 1.998841 2.999570
vt -0.001159 -0.000430
vt -0.001159 0.999570
vt 0.998841 0.999570
vt 0.998841 -0.000430
vt 0.998841 0.999570
vt -0.001159 0.999570
vt -0.001159 1.999570
vt 0.998841 1.999570
vt -0.001158 2.999569
vt 0.998841 2.999569
vt 0.998841 1.999570
vt -0.001158 1.999570
s 0
usemtl Material
f 1/1/1 5/2/1 7/3/1 3/4/1
f 4/5/2 3/6/2 7/7/2 8/8/2
f 8/8/3 7/9/3 5/10/3 6/11/3
f 6/12/4 2/13/4 4/14/4 8/15/4
f 2/16/5 1/17/5 3/18/5 4/19/5
f 6/20/6 5/21/6 1/22/6 2/23/6
